PathFileType	4	(X/Y/Z)	C:/Users/beibeiliu/ov580/test_trc/capture2\sequence.7_training_dense_right.trc
DataRate	CameraRate	NumFrames	NumMarkers	Units	OrigDataRate	OrigDataStartFrame	OrigNumFrames
120	120	14	19	mm	120	301	400
Frame#	Time	ThumbCMC			ThumbMCP			ThumbIP			ThumbTip			IndexMCP			IndexPIP			IndexTip			MiddleMCP			MiddlePIP			MiddleTip			RingMCP			RingPIP			RingTip			PinkyMCP			PinkyPIP			PinkyTip			BackHand1			BackHand2			BackHand3	
		X0	Y0	Z0	X1	Y1	Z1	X2	Y2	Z2	X3	Y3	Z3	X4	Y4	Z4	X5	Y5	Z5	X6	Y6	Z6	X7	Y7	Z7	X8	Y8	Z8	X9	Y9	Z9	X10	Y10	Z10	X11	Y11	Z11	X12	Y12	Z12	X13	Y13	Z13	X14	Y14	Z14	X15	Y15	Z15	X16	Y16	Z16	X17	Y17	Z17	X18	Y18	Z18	
300	2.5	143.655	83.0853	-44.5998	134.498	99.6526	-69.8973	134.329	110.609	-96.1212	132.712	117.389	-111.868	136.262	63.1115	-117.042	106.276	65.2045	-113.411	112.069	68.3092	-78.3895	132.579	42.7116	-116.196	103.361	48.8937	-110.527	111.9	51.327	-72.4811	127.751	24.853	-107.059	99.9989	34.2824	-95.8342	113.668	45.2772	-68.0304	122.127	11.1601	-96.1985	99.9097	25.5557	-79.3906	115.341	36.787	-57.0297	165.486	25.9372	-65.1716	165.534	30.6818	-33.5186	167.921	60.3996	-52.9456	
301	2.50833	144.546	86.4356	-44.2696	135.018	95.1943	-70.8164	134.488	109.544	-93.5306	134.928	115.972	-115.586	135.663	61.382	-116.686	105.284	64.396	-112.215	112.094	65.0172	-77.8337	128.642	38.3314	-116.453	100.101	46.786	-107.003	112.009	51.3858	-71.0177	122.972	24.8337	-106.937	98.7443	34.4063	-96.4973	114.708	45.8475	-66.845	120.96	13.0014	-95.5119	98.6233	22.4498	-82.9005	115.999	36.0041	-53.4685	161.702	21.8898	-61.4055	164.035	27.4219	-29.0865	166.108	52.9273	-55.116	
302	2.51667	143.983	78.7918	-45.3765	135.102	90.4399	-69.749	135.366	103.664	-93.5688	134.013	110.389	-112.096	136.184	58.5647	-114.534	104.381	59.4328	-110.501	112.379	62.928	-77.1413	130.058	36.5409	-112.534	98.7252	43.0233	-105.172	109.845	49.8386	-70.2277	119.951	18.8218	-106.523	95.8105	30.697	-92.3462	112.493	39.6032	-64.1934	118.34	8.41969	-94.2369	95.0873	21.3364	-80.2166	112.044	32.0715	-55.1286	160.626	19.819	-62.9982	161.417	25.623	-27.6461	166.014	50.0663	-54.113	
303	2.525	146.147	76.9714	-45.2047	136.882	86.9329	-71.8043	136.731	101.057	-95.4885	135.664	109.886	-111.069	135.383	50.5495	-113.755	103.72	59.4592	-111.48	108.043	60.3885	-79.1143	125.15	29.5761	-113.999	97.2472	44.5157	-104.741	108.018	48.9344	-71.9904	121.375	15.0658	-102.757	92.7673	27.6235	-91.2015	111.685	38.1925	-63.5585	112.152	2.307	-93.5359	93.0294	18.0618	-80.4725	112.054	33.8198	-55.8734	156.886	14.3815	-63.4366	159.091	20.2191	-30.0152	165.355	47.3619	-52.9111	
304	2.53333	147.342	69.2407	-45.623	139.019	80.662	-70.7756	138.657	90.5099	-94.6186	137.656	99.768	-112.896	132.51	47.1676	-116.048	104.807	53.6891	-112.789	111.678	54.0899	-77.1239	124.674	26.3447	-113.208	96.6055	37.5323	-104.706	110.937	47.4076	-69.3714	115.38	12.8155	-103.577	91.7841	28.3407	-89.4245	108.568	34.4588	-63.9091	108.6	-2.80031	-90.7327	90.3319	15.2053	-79.9889	107.055	24.8562	-53.4067	153.977	6.13094	-60.9409	157.484	12.2555	-30.1625	167.581	40.2014	-51.5842	
305	2.54167	148.883	63.6378	-44.5547	140.16	75.4744	-67.1855	141.189	82.7211	-96.2716	141.175	91.0933	-116.829	133.15	38.2269	-112.716	104.56	49.0569	-112.277	109.898	51.8207	-77.5732	124.575	19.0726	-109.826	96.0054	35.3028	-102.448	108.743	42.0857	-70.8149	111.316	6.24002	-101.791	90.625	22.2953	-92.2843	108.052	31.6784	-63.5826	106.709	-9.54427	-85.2535	87.5573	13.926	-74.3127	107.205	23.7605	-56.2373	150.806	-1.0128	-55.6186	154.561	3.27947	-27.4025	164.817	33.0481	-50.6074	
306	2.55	150.381	58.644	-46.1305	142.01	70.7011	-69.7457	143.53	79.7089	-96.2769	141.958	84.5365	-114.131	129.479	34.0858	-115.344	102.125	41.1556	-109.484	109.73	44.3338	-76.1802	119.805	11.9869	-109.472	93.7197	30.8969	-100.794	107.348	34.9195	-69.183	110.553	-0.572873	-98.4145	88.9091	17.6594	-89.3209	106.622	24.1547	-59.621	104.413	-10.9405	-86.0796	85.212	6.61978	-75.8832	108.501	19.073	-50.6376	149.242	-5.57769	-54.3249	151.384	-0.827215	-23.1673	161.416	22.0429	-51.8227	
307	2.55833	149.003	52.8266	-46.6734	141.174	62.6789	-70.7958	143.002	71.6075	-94.6809	144.672	80.1632	-120.172	124.239	23.3373	-113.232	99.6856	40.495	-106.783	109.596	43.2013	-77.545	116.535	7.54412	-109.891	90.937	24.6303	-99.4401	105.626	31.8605	-68.9231	105.344	-8.40956	-97.2827	87.1144	13.6284	-88.3493	106.064	21.4946	-60.1233	99.2752	-18.9064	-82.2389	84.2596	4.94317	-72.2673	107.157	15.7493	-53.0611	144.272	-13.3722	-55.0207	150.905	-2.10767	-28.1634	161.645	18.2877	-52.0674	
308	2.56667	148.056	44.5278	-47.5242	142.285	57.7346	-68.6788	143.248	65.5555	-94.8741	143.634	70.2245	-119.216	124.1	16.7399	-111.622	97.1633	30.0849	-104.435	106.475	34.4668	-77.1068	111.132	-1.12234	-107.927	88.2753	15.0291	-100.781	104.904	25.2439	-68.3594	100.634	-13.1895	-96.6599	81.964	6.03484	-85.0684	101.956	18.2385	-61.9625	100.667	-22.3798	-79.9454	80.8182	-0.806375	-72.2372	106.138	10.5014	-50.3616	141.613	-19.1349	-54.2368	148.465	-10.6321	-26.5629	158.275	12.6714	-51.9473	
309	2.575	147.3	38.57	-47.3385	143.09	50.8618	-75.4931	144.089	58.8674	-101.416	142.383	62.0464	-119.822	122.132	14.3093	-113.192	96.1863	25.1686	-107.198	107.522	29.7815	-75.943	111.64	-8.56212	-105.038	85.3379	12.4229	-96.5985	103.231	19.4545	-67.4064	97.32	-16.1648	-95.8837	78.9611	3.27671	-83.9067	101.642	12.1733	-57.5506	92.2667	-27.6847	-78.9077	77.3291	-5.02536	-72.5536	100.283	6.81999	-50.2643	140.402	-23.6653	-50.3009	144.612	-17.2793	-21.8145	156.555	2.52702	-51.6641	
310	2.58333	146.804	33.6123	-49.9743	138.939	41.7957	-72.893	142.978	52.9704	-97.6231	141.393	54.0936	-120.622	119.169	5.94605	-112.096	95.0563	19.3198	-107.554	104.064	23.3307	-75.866	107.929	-13.4646	-103.888	83.5012	5.00774	-97.7886	102.793	17.4707	-67.6564	95.7309	-26.0758	-91.1738	79.9411	1.56056	-83.634	101.172	8.58808	-59.4893	87.3895	-33.377	-78.3477	78.434	-5.97726	-71.179	101.262	0.356017	-49.0469	136.847	-31.2146	-51.4365	141.32	-20.5658	-21.5697	153.056	-3.01982	-50.8424	
311	2.59167	144.659	24.4087	-47.4123	139.248	36.8484	-69.4539	139.993	40.9586	-94.712	140.457	46.7329	-118.363	117.809	-4.07221	-109.334	93.9642	12.8505	-106.67	107.245	19.9985	-72.6405	105.121	-18.0442	-104.141	81.7237	0.901714	-96.6245	99.3128	10.8471	-66.2756	94.1223	-28.5397	-90.3238	76.4165	-3.37248	-80.348	100.105	2.24824	-56.6031	85.1283	-39.6528	-73.054	71.5551	-12.5351	-66.1947	98.6624	-4.00577	-49.3024	130.816	-37.4854	-47.7137	137.261	-29.2261	-19.6548	150.213	-10.6627	-46.7	
312	2.6	144.292	19.8663	-45.236	138.87	29.4039	-69.8975	141.27	35.9897	-97.5241	139.174	36.8631	-120.229	117.229	-7.84982	-109.477	92.3244	7.87556	-103.698	101.442	13.5171	-73.8563	104.366	-24.5901	-102.195	81.8906	-1.9394	-96.1189	99.2751	5.62044	-65.6373	87.9931	-33.8376	-90.1206	75.4101	-9.42154	-80.4725	99.3687	-2.39527	-55.1898	82.6931	-40.6384	-75.0161	73.4803	-14.9991	-66.747	97.4335	-10.5517	-42.4761	127.973	-47.521	-43.7862	136.518	-33.1323	-20.6425	151.817	-16.9875	-47.6843	
313	2.60833	142.52	11.8964	-46.2237	139.168	25.7946	-69.5459	141.483	30.1229	-95.7033	141.454	33.32	-118.619	116.203	-18.2946	-104.908	93.7915	3.82591	-104.957	101.2	9.49263	-73.7908	99.5636	-33.7933	-99.1347	80.1166	-9.5216	-93.9026	98.6595	1.0806	-64.3286	87.7877	-42.8259	-85.1839	72.0287	-15.2067	-79.2983	94.1907	-6.81814	-54.1031	79.4336	-45.9986	-72.1874	72.1861	-17.843	-65.9242	91.9223	-12.3583	-41.1577	125.138	-50.1501	-45.368	132.556	-39.8245	-11.7683	147.69	-23.8166	-42.9502	
